<svg width="247" height="40" viewBox="0 0 247 40" fill="none" xmlns="http://www.w3.org/2000/svg">
<path d="M22.11 5.8V8.2H28.38V11.98H22.11V13.84H17.88V11.98H12.06V13.84H7.8V11.98H1.59V8.2H7.8V5.8H12.06V8.2H17.88V5.8H22.11ZM23.64 26.89C23.7 26.11 23.82 23.95 23.85 23.29L27.93 24.22C27.9 24.82 27.75 27.43 27.66 28.33C27.42 31.45 26.07 32.68 21.87 32.68H7.41C4.02 32.68 2.82 31.15 2.82 28.96C2.82 26.41 6.09 23.32 17.31 18.67H3.96V14.98H25.02V18.67C9.21 26.23 7.62 27.73 7.62 28.45C7.62 28.75 8.07 28.84 8.67 28.84H21.24C23.19 28.84 23.55 28.51 23.64 26.89ZM51.84 24.88H58.89V28.54H51.84V33.25H48.15V28.54H40.62V24.88H48.15V23.5H41.97V20.98L40.44 23.47L39.06 22.27V33.19H35.37V23.05C34.68 23.86 33.9 24.67 33.06 25.51L31.71 21.28C34.35 18.67 35.88 16.36 36.96 14.17H32.73V10.42H36.33C35.67 9.31 34.92 8.11 34.17 7.03L37.32 5.14C38.1 6.28 39.09 7.72 39.87 9.01L37.53 10.42H41.04V14.23C40.47 15.37 39.9 16.48 39.24 17.59L41.97 19.81V9.4H45.3L43.65 6.76L46.71 5.11L49.02 8.68L47.7 9.4H50.73C51.63 8.08 52.62 6.4 53.19 5.23L56.4 6.64C55.98 7.39 55.38 8.41 54.75 9.4H57.96V23.5H51.84V24.88ZM45.57 14.83H48.15V12.91H45.57V14.83ZM54.42 12.91H51.84V14.83H54.42V12.91ZM45.57 18.01V19.96H48.15V18.01H45.57ZM51.84 18.01V19.96H54.42V18.01H51.84ZM84.21 31.48H78.9L76.98 26.05H68.7L66.78 31.48H61.47L70.29 8.08H75.42L84.21 31.48ZM72.75 14.68L70.38 21.37H75.3L72.93 14.68H72.75ZM91.721 31.48H86.861V13.75H91.721V16.99H91.871C93.041 14.71 95.111 13.33 98.411 13.33H98.591V18.1H98.291C93.611 18.1 91.721 19.72 91.721 22.72V31.48ZM112.736 13.75V18.34H108.146V25.18C108.146 26.47 108.926 27.22 110.306 27.22C110.936 27.22 111.626 27.13 112.376 26.89V31.48C111.266 31.81 110.306 31.96 109.136 31.96C105.356 31.96 103.286 29.8 103.286 25.9V18.34H100.556V13.75H103.286V8.74H108.146V13.75H112.736ZM128.766 17.26L121.206 26.98H129.156V31.54H114.786V28.03L122.346 18.31H114.966V13.75H128.766V17.26ZM147.3 21.34C147.3 22.42 147.15 23.41 146.91 24.31H135.93C136.26 26.47 137.43 27.76 139.62 27.76C141.06 27.76 142.17 26.98 142.98 25.42L146.64 27.88C145.62 29.98 143.34 31.9 139.56 31.9C134.37 31.9 130.89 28.39 130.89 22.78C130.89 16.99 134.25 13.33 139.32 13.33C144.09 13.33 147.3 16.45 147.3 21.34ZM136.05 20.5H142.35C142.35 18.58 141.27 17.32 139.32 17.32C137.55 17.32 136.47 18.49 136.05 20.5ZM155.557 31.48H150.697V13.75H155.557V16.09H155.707C156.697 14.41 158.437 13.33 160.657 13.33C164.227 13.33 166.297 15.73 166.297 19.96V31.48H161.467V21.04C161.467 19.12 160.417 17.92 158.767 17.92C156.817 17.92 155.557 19.27 155.557 21.37V31.48ZM192.656 19.3L201.026 31.48H194.846L189.686 23.35L184.736 31.48H178.556L186.836 19.15L179.006 8.08H185.126L189.896 15.22L194.456 8.08H200.546L192.656 19.3ZM212.521 31.48H207.511V13.69L202.291 16.39V11.17L208.351 8.08H212.521V31.48Z" fill="black"/>
<path fill-rule="evenodd" clip-rule="evenodd" d="M245.864 9.06911C245.344 8.09239 244.574 7.32403 243.593 6.7987C242.617 6.27779 241.649 6 238.971 6H227.691C225.018 6 224.045 6.27779 223.073 6.7987C222.097 7.31962 221.327 8.08797 220.803 9.06911C220.282 10.0458 220 11.0181 220 13.6923V24.9744C220 27.6484 220.282 28.6208 220.803 29.5976C221.324 30.5743 222.092 31.3426 223.073 31.8679C224.045 32.3888 225.018 32.6667 227.691 32.6667H238.971C241.649 32.6667 242.617 32.3888 243.593 31.8679C244.57 31.3469 245.339 30.5786 245.864 29.5976C246.385 28.6208 246.667 27.6484 246.667 24.9744V13.6923C246.667 11.0181 246.385 10.0458 245.864 9.06911ZM238.589 27.401C237.448 28.4385 235.973 29.0419 233.208 29.0419C230.673 29.0419 228.65 28.5818 227.153 27.7656C226.866 27.5963 226.701 27.2838 226.71 26.9496L226.836 24.9006C226.906 24.4405 227.335 24.1236 227.795 24.1887C227.826 24.1887 227.847 24.1973 227.873 24.2018C229.319 24.727 230.825 25.0613 232.357 25.1958C234.801 25.3824 235.104 25.1741 235.704 24.4839C236.302 23.7893 236.333 21.6623 235.638 21.2238C235.195 20.8809 235.235 21.0111 232.804 20.6725C230.039 20.3122 228.603 19.9172 227.786 19.0968C226.906 18.35 226.632 17.3387 226.632 15.841C226.601 15.1638 226.645 14.4779 226.749 13.8095C226.988 12.0469 227.921 11.0659 229.535 10.2802C230.581 9.8027 231.728 9.58131 232.873 9.62468C234.948 9.55096 237.01 9.94165 238.919 10.7664C239.215 10.8533 239.401 11.1484 239.362 11.4566L239.18 13.4969C239.11 13.957 238.685 14.2739 238.225 14.2088C238.194 14.2088 238.169 14.2001 238.142 14.1957C237.205 13.9743 236.137 13.5533 234.336 13.193C233.537 13.0367 232.713 13.0367 231.914 13.193C231.081 13.2928 230.447 13.9831 230.421 14.8165V14.8643C230.316 15.8974 230.59 16.7179 231.606 16.9523C232.83 17.2431 233.425 17.1694 235.473 17.3951C237.522 17.6208 238.607 18.2763 239.188 19.1575C239.835 19.9128 240.048 21.4061 240.048 22.7866C240.048 24.6358 239.844 26.2203 238.585 27.3967L238.589 27.401Z" fill="black"/>
</svg>
