<svg width="118" height="40" viewBox="0 0 118 40" fill="none" xmlns="http://www.w3.org/2000/svg">
<path d="M21.5096 21.1831C22.7136 21.1831 23.3066 22.6471 22.4426 23.4851L14.4796 31.2071C13.9552 31.7158 13.2533 32.0002 12.5226 32.0001H3.30665C2.10265 32.0001 1.50965 30.5361 2.37365 29.6981L10.3356 21.9761C10.8601 21.4674 11.562 21.183 12.2926 21.1831H21.5096Z" fill="#42B3FF" fill-opacity="0.8"/>
<path d="M21.7711 14.48C22.9751 14.48 23.5691 15.943 22.7041 16.782L14.8601 24.39C14.2601 24.971 13.4581 25.297 12.6221 25.297H3.56815C2.36515 25.297 1.77115 23.833 2.63515 22.995L10.5981 15.272C11.1226 14.7633 11.8245 14.4789 12.5552 14.479L21.7711 14.48Z" fill="#42B3FF" fill-opacity="0.8"/>
<path d="M21.5096 8C22.7136 8 23.3066 9.464 22.4426 10.302L14.4796 18.024C13.9552 18.5327 13.2533 18.8171 12.5226 18.817H3.30665C2.10265 18.817 1.50965 17.353 2.37365 16.515L10.3356 8.793C10.8601 8.2843 11.562 7.99986 12.2926 8H21.5096Z" fill="#42B3FF" fill-opacity="0.8"/>
<path d="M107.501 29.5402H104.104V15.0319H107.501V16.9732H107.628C108.471 15.5683 110.055 14.6743 111.843 14.6743C114.857 14.6743 116.645 16.6667 116.645 20.166V29.5402H113.248V20.8812C113.248 19.0421 112.175 17.8672 110.617 17.8672C108.727 17.8672 107.501 19.1443 107.501 21.1366V29.5402Z" fill="white" fill-opacity="0.9"/>
<path d="M101.224 21.1622C101.224 21.9796 101.148 22.7203 100.969 23.41H91.5435C91.7989 25.6066 92.9739 26.9349 95.0684 26.9349C96.3455 26.9349 97.4438 26.2963 98.2101 24.9425L100.764 26.6794C99.8193 28.4674 97.9547 29.8978 95.0428 29.8978C90.7772 29.8978 88.0186 27.0115 88.0186 22.3882C88.0186 17.6373 90.675 14.6743 94.8129 14.6743C98.6954 14.6743 101.224 17.2031 101.224 21.1622ZM91.6456 20.6513H97.7759C97.7759 18.7612 96.7542 17.5351 94.8129 17.5351C93.076 17.5351 92.0032 18.6334 91.6456 20.6513Z" fill="white" fill-opacity="0.9"/>
<path d="M86.2499 17.5349L79.4299 26.4749H86.5819V29.6678H74.96V27.139L81.7799 18.199H75.0877V15.0317H86.2499V17.5349Z" fill="white" fill-opacity="0.9"/>
<path d="M73.4759 15.0319V18.2248H69.5678V24.7637C69.5678 26.0153 70.283 26.7305 71.5601 26.7305C72.0455 26.7305 72.6074 26.6283 73.1693 26.4495V29.6424C72.4031 29.8978 71.6368 30 70.7683 30C67.8054 30 66.1706 28.2886 66.1706 25.1979V18.2248H63.9229V15.0319H66.1706V10.7407H69.5678V15.0319H73.4759Z" fill="white" fill-opacity="0.9"/>
<path d="M56.8396 29.5402H53.4424V15.0319H56.8396V17.7139H56.9673C58.0145 15.8237 59.777 14.6743 62.3313 14.6743H62.4845V18.0715H62.2546C58.5509 18.0715 56.8396 19.6041 56.8396 21.954V29.5402Z" fill="white" fill-opacity="0.9"/>
<path d="M51.2631 29.5402H47.5339L45.6181 24.2273H38.645L36.7292 29.5402H33L40.3308 10H43.9579L51.2631 29.5402ZM42.0677 14.7254L39.8455 20.9068H44.4432L42.2209 14.7254H42.0677Z" fill="white" fill-opacity="0.9"/>
</svg>
