<svg width="40" height="40" viewBox="0 0 40 40" fill="none" xmlns="http://www.w3.org/2000/svg">
<path d="M28.5809 21.1831C29.7849 21.1831 30.3779 22.6471 29.5139 23.4851L21.5509 31.2071C21.0265 31.7158 20.3246 32.0002 19.5939 32.0001H10.3779C9.17394 32.0001 8.58094 30.5361 9.44494 29.6981L17.4069 21.9761C17.9314 21.4674 18.6333 21.183 19.3639 21.1831H28.5809Z" fill="#42B3FF" fill-opacity="0.8"/>
<path d="M28.8424 14.48C30.0464 14.48 30.6404 15.943 29.7754 16.782L21.9314 24.39C21.3314 24.971 20.5294 25.297 19.6934 25.297H10.6394C9.43644 25.297 8.84244 23.833 9.70644 22.995L17.6694 15.272C18.1939 14.7633 18.8958 14.4789 19.6264 14.479L28.8424 14.48Z" fill="#42B3FF" fill-opacity="0.8"/>
<path d="M28.5809 8C29.7849 8 30.3779 9.464 29.5139 10.302L21.5509 18.024C21.0265 18.5327 20.3246 18.8171 19.5939 18.817H10.3779C9.17394 18.817 8.58094 17.353 9.44494 16.515L17.4069 8.793C17.9314 8.2843 18.6333 7.99986 19.3639 8H28.5809Z" fill="#42B3FF" fill-opacity="0.8"/>
</svg>
