<svg width="51" height="50" viewBox="0 0 51 50" fill="none" xmlns="http://www.w3.org/2000/svg">
<g clip-path="url(#clip0_41_54)">
<path d="M19.3616 20.4093C21.8156 17.9392 25.5073 17.2004 28.7135 18.5387C31.9193 19.8762 34.0094 23.0265 34.0073 26.5199C34.0022 29.7117 32.2773 32.4956 29.7167 33.9888C35.5788 35.8155 39.8382 41.3146 39.8383 47.8161C39.8382 48.165 39.6993 48.4992 39.4547 48.7465C39.2102 48.9926 38.8772 49.1316 38.5306 49.1317C38.1839 49.1317 37.852 48.9925 37.6064 48.7465C37.3618 48.5003 37.2229 48.165 37.2228 47.8161C37.2227 41.2764 31.9561 35.9758 25.4588 35.9756C18.9615 35.9758 13.6949 41.2775 13.6948 47.8161C13.6947 48.5428 13.1092 49.1316 12.3871 49.1317C11.6651 49.1315 11.0804 48.5428 11.0803 47.8161C11.0804 41.3322 15.3169 35.8441 21.1557 34.003C19.5467 33.0726 18.2447 31.6219 17.5034 29.8215C16.1738 26.5945 16.9075 22.8793 19.3616 20.4093ZM5.96219 10.7945C6.47386 10.2817 7.30173 10.2822 7.81234 10.7973C15.2554 18.3039 15.2555 30.4584 7.81234 37.9661L7.76884 38.014C7.52098 38.2635 7.18237 38.3999 6.83134 38.3914C6.29848 38.3945 5.81627 38.0705 5.61418 37.5737C5.41235 37.077 5.53072 36.5064 5.91248 36.1328C5.92627 36.1157 5.94239 36.1011 5.96042 36.0893C12.3727 29.6116 12.3726 19.1349 5.96042 12.6572C5.44982 12.1422 5.45161 11.3085 5.96219 10.7945ZM43.1612 10.7884C43.6782 10.308 44.4811 10.3252 44.9767 10.8292C45.4725 11.3325 45.4819 12.1411 44.9989 12.6572L44.9652 12.6926C38.5497 19.1725 38.5497 29.6538 44.9652 36.1337C45.3383 36.5095 45.4503 37.0745 45.2484 37.5657C45.0474 38.0546 44.5743 38.3737 44.0499 38.378C43.7033 38.3779 43.3712 38.238 43.1267 37.9918C35.6838 30.4852 35.6837 18.3295 43.1267 10.823L43.1612 10.7884ZM48.7135 16.3299C49.2411 15.8378 50.0651 15.8679 50.5565 16.3956C51.0426 16.9191 51.0234 17.7368 50.513 18.2368L50.4819 18.2679C47.1333 21.6673 47.1335 27.1494 50.4819 30.5477C50.8585 30.9235 50.9726 31.4915 50.7705 31.9851C50.5673 32.4786 50.0894 32.8003 49.5586 32.7992L49.5799 32.8161C49.2332 32.8161 48.9013 32.678 48.6567 32.4307C44.2655 27.9949 44.2656 20.8191 48.6567 16.3832L48.7135 16.3299ZM0.457933 16.4072C0.955773 15.9061 1.75859 15.8923 2.27345 16.3752C6.66665 20.809 6.66675 27.9848 2.27345 32.4175L2.24238 32.4485C1.99036 32.6902 1.65337 32.8221 1.30576 32.8125L1.30665 32.8134C0.972655 32.8176 0.65039 32.6943 0.404666 32.4663C-0.117642 31.9652 -0.136677 31.1321 0.361165 30.6064C0.414271 30.5503 0.456577 30.5055 0.489893 30.4705C3.79035 27.064 3.77056 21.6134 0.425973 18.2342C-0.0536726 17.716 -0.0398702 16.9082 0.457933 16.4072ZM25.4322 20.5167C23.0198 20.5158 20.8437 21.9757 19.9182 24.2196C18.9938 26.4627 19.5019 29.0468 21.2081 30.7653C22.9144 32.4825 25.4809 32.9978 27.7094 32.0685C29.9387 31.1391 31.3917 28.95 31.3918 26.5208C31.3897 23.2082 28.7225 20.522 25.4313 20.5175L25.4322 20.5167ZM11.9557 5.94638C12.4768 5.45183 13.2973 5.47074 13.7951 5.98988C20.233 12.447 30.6457 12.4472 37.0835 5.98988C37.5962 5.46641 38.433 5.46149 38.9531 5.97745C39.4728 6.49356 39.4781 7.33524 38.9656 7.85866C35.3839 11.4625 30.5235 13.4818 25.4579 13.4713C20.3928 13.4827 15.5316 11.461 11.9512 7.85423L11.9077 7.80628C11.411 7.27951 11.4323 6.44637 11.9557 5.94638ZM17.4527 0.391512C17.9601 -0.125542 18.7891 -0.131544 19.3029 0.379971L19.3588 0.450994C22.7437 3.81192 28.1886 3.80133 31.5597 0.42436C32.0745 -0.0584053 32.8774 -0.0445126 33.3752 0.45632C33.873 0.957409 33.8869 1.76498 33.4071 2.28427C31.302 4.41057 28.4414 5.60688 25.4597 5.60902C22.4759 5.61112 19.6117 4.41756 17.5034 2.29225L17.4635 2.2532C16.9498 1.74256 16.9447 0.908647 17.4527 0.391512Z" fill="url(#paint0_linear_41_54)"/>
</g>
<defs>
<linearGradient id="paint0_linear_41_54" x1="20.618" y1="49.1318" x2="0.825831" y2="9.50379" gradientUnits="userSpaceOnUse">
<stop stop-color="#3385FF"/>
<stop offset="1" stop-color="#6FA9FF"/>
</linearGradient>
<clipPath id="clip0_41_54">
<rect width="50.9091" height="50" fill="white"/>
</clipPath>
</defs>
</svg>
