<svg width="50" height="50" viewBox="0 0 50 50" fill="none" xmlns="http://www.w3.org/2000/svg">
<g clip-path="url(#clip0_40_18)">
<path d="M45.531 29.4905C45.8758 29.0429 46.4425 28.8258 46.9984 28.9286C47.5542 29.0315 48.0053 29.4378 48.166 29.9797H48.1626C48.8159 31.7426 49.1413 33.6107 49.122 35.4904C49.1101 40.9955 46.2121 46.0927 41.4868 48.9182C41.2694 49.0477 41.025 49.125 40.7724 49.1443C40.0922 49.1486 39.4937 48.6949 39.3127 48.0384C39.1329 47.3819 39.4154 46.6871 40.0022 46.3423C43.8151 44.0619 46.1556 39.952 46.1717 35.5093C46.1696 33.9865 45.8952 32.4775 45.3631 31.0522C45.1221 30.5414 45.1863 29.9382 45.531 29.4905ZM38.283 30.3652C39.0616 30.0685 39.9336 30.4604 40.2292 31.239C40.648 32.3646 40.8629 33.5557 40.8683 34.7563C40.8555 38.2554 39.0153 41.4937 36.0163 43.2952C35.784 43.4344 35.5163 43.507 35.2454 43.5017C34.7174 43.5081 34.2249 43.237 33.9476 42.7872C33.5298 42.0686 33.7643 41.149 34.4744 40.7184C36.5694 39.4611 37.8523 37.1994 37.8598 34.7563C37.8619 33.92 37.7092 33.0911 37.4084 32.3115C37.1127 31.5328 37.5043 30.6608 38.283 30.3652ZM44.7608 0.0754741C45.5501 -0.183607 46.4005 0.245782 46.6609 1.03491C46.92 1.82417 46.4906 2.67475 45.7014 2.93406L34.154 6.69554V30.7301C34.1562 29.7834 34.1619 27.8271 34.172 31.5217C34.1848 36.1968 30.9051 40.2361 26.3252 41.1819C21.7467 42.1274 17.1336 39.719 15.2935 35.4211C13.4534 31.123 14.8932 26.1232 18.738 23.4616C22.582 20.8 27.7698 21.2134 31.1447 24.4501V5.64188C31.1447 4.99294 31.5619 4.41554 32.1786 4.21301L44.7608 0.0754741ZM26.9446 25.0095C24.3795 23.9461 21.4268 24.5345 19.4636 26.4975C17.5004 28.4607 16.9131 31.4141 17.9756 33.9793C19.0382 36.5443 21.5413 38.217 24.3173 38.2171V38.2162C28.1077 38.2162 31.1813 35.1434 31.1815 31.352C31.1815 28.5759 29.5098 26.072 26.9446 25.0095ZM7.63606 14.1637C8.32786 13.76 9.21406 13.9855 9.62862 14.6708C9.83634 15.0125 9.8995 15.4232 9.80423 15.811C9.70879 16.1985 9.46301 16.5329 9.12143 16.7396H9.11976L9.17713 16.7961C3.92259 19.9214 1.66452 26.3635 3.81718 32.0861C4.08494 32.8434 3.7017 33.677 2.95198 33.9674C2.77954 34.0402 2.59374 34.0796 2.4063 34.0796C1.78426 34.0772 1.22829 33.6877 1.01514 33.1021C0.340364 31.337 -0.00319085 29.4619 2.23318e-05 27.5725C0.0183717 22.0739 2.91601 16.9859 7.63606 14.1637ZM13.1099 19.7849C13.8264 19.3599 14.7527 19.5961 15.1778 20.3125C15.6027 21.0298 15.3676 21.954 14.6519 22.3805V22.437C11.7622 24.1551 10.5246 27.7016 11.7188 30.844C11.9747 31.6066 11.5844 32.4341 10.8348 32.7244C10.6644 32.7832 10.4878 32.8152 10.3079 32.8195C9.68134 32.8152 9.12195 32.426 8.89704 31.8411C8.46649 30.7188 8.24941 29.5255 8.25797 28.3239C8.27082 24.8247 10.111 21.5864 13.1099 19.7849Z" fill="url(#paint0_linear_40_18)"/>
</g>
<defs>
<linearGradient id="paint0_linear_40_18" x1="19.8947" y1="49.1444" x2="-0.326515" y2="10.0878" gradientUnits="userSpaceOnUse">
<stop stop-color="#3385FF"/>
<stop offset="1" stop-color="#6FA9FF"/>
</linearGradient>
<clipPath id="clip0_40_18">
<rect width="49.1228" height="50" fill="white"/>
</clipPath>
</defs>
</svg>
