<svg width="50" height="50" viewBox="0 0 50 50" fill="none" xmlns="http://www.w3.org/2000/svg">
<g clip-path="url(#clip0_41_28)">
<path d="M1.49449 36.6542C2.23418 36.7004 2.81309 37.3179 2.81111 38.0598V43.0263L2.8268 43.355V43.3698C3.01154 45.1521 4.50194 46.4964 6.29272 46.4966H11.901L12.1103 46.5096C12.8381 46.6073 13.3708 47.2542 13.3248 47.9885C13.2787 48.7271 12.6625 49.3049 11.9228 49.3051H6.2997L6.29796 49.3042L5.90036 49.292C2.59122 49.0847 -8.00507e-05 46.329 0.00087193 43.0123V38.0772L0.0139509 37.8679C0.107364 37.1732 0.702467 36.6516 1.40468 36.6516C1.43461 36.6516 1.46456 36.6511 1.49449 36.6542ZM48.6834 36.6542C49.4241 36.7004 50.002 37.3179 50 38.0598V43.0045L49.9878 43.4029C49.7816 46.7131 47.0258 49.3049 43.7081 49.3051H37.098L37.0989 49.3042L36.8896 49.2912C36.1617 49.1934 35.6288 48.5458 35.6751 47.8114C35.7213 47.0729 36.3367 46.4959 37.0762 46.4957H43.7204L44.0491 46.4791H44.0647C45.8469 46.2943 47.1905 44.8042 47.1906 43.0123V38.0772L47.2037 37.8679C47.2971 37.1732 47.8924 36.6516 48.5936 36.6516C48.6235 36.6516 48.6535 36.6511 48.6834 36.6542ZM24.9991 10.8713C25.7001 10.8713 26.295 11.3918 26.3907 12.0841L26.4038 12.2925V37.0221C26.406 37.7652 25.8269 38.3823 25.0872 38.4286C25.0573 38.4307 25.0271 38.4321 24.9982 38.4321C24.2962 38.432 23.7011 37.9102 23.6075 37.2157L23.5945 37.0065V12.2759C23.5947 11.5021 24.2253 10.8714 24.9991 10.8713ZM16.4454 17.4447C17.1464 17.4447 17.7413 17.9645 17.8371 18.6567L17.8502 18.8651V30.4479C17.8521 31.1907 17.2732 31.8081 16.5336 31.8543C16.5037 31.8563 16.4736 31.8578 16.4438 31.8578L16.4446 31.8586C15.7426 31.8585 15.1473 31.3362 15.0539 30.6405L15.0417 30.4312V18.8494C15.0419 18.0756 15.6717 17.445 16.4454 17.4447ZM33.5519 17.4447C34.2528 17.4447 34.8476 17.9646 34.9435 18.6567L34.9566 18.8651V30.4479C34.9586 31.1907 34.3796 31.8081 33.64 31.8543C33.6101 31.8563 33.58 31.8578 33.5502 31.8578L33.551 31.8586C32.849 31.8584 32.2537 31.3362 32.1603 30.6405L32.1481 30.4312V18.8494C32.1483 18.0756 32.7782 17.4451 33.5519 17.4447ZM6.05992 21.7468C6.76076 21.747 7.35579 22.2666 7.45152 22.9588L7.46373 23.1672V26.1466C7.46587 26.8895 6.88759 27.5064 6.14798 27.5539C6.11802 27.556 6.08814 27.5574 6.05818 27.5574C5.35633 27.5571 4.76183 27.0356 4.66832 26.3402L4.65524 26.1309V23.1506C4.65562 22.3769 5.28614 21.747 6.05992 21.7468ZM43.9392 21.7468C44.6402 21.7468 45.2351 22.2664 45.3308 22.9588L45.3439 23.1672V26.1466C45.3461 26.8896 44.7671 27.5066 44.0272 27.5539C43.9974 27.556 43.9682 27.5574 43.9383 27.5574C43.2363 27.5572 42.6411 27.0357 42.5476 26.3402L42.5354 26.1309V23.1506C42.5358 22.377 43.1655 21.7471 43.9392 21.7468ZM11.9149 0C12.6601 0 13.2759 0.578965 13.3231 1.31662C13.3691 2.05091 12.8363 2.69854 12.1085 2.79629L11.8992 2.80849H6.29186C4.49891 2.80856 3.00967 4.15305 2.82593 5.93523V5.95093L2.80849 6.27878V11.2445C2.81045 11.9872 2.23229 12.6046 1.49275 12.6508C1.46268 12.653 1.43212 12.6535 1.40206 12.6535L1.40294 12.6526C0.70091 12.6524 0.10648 12.1308 0.0130789 11.4363L0 11.227V6.29186C9.42188e-05 2.97534 2.59074 0.218575 5.89862 0.0122071L6.29708 0H11.9149ZM43.7072 0C47.0248 0.00020009 49.7807 2.59202 49.987 5.9021L49.9991 6.30057V11.2445C50.0011 11.9873 49.4222 12.6046 48.6825 12.6508C48.6526 12.6529 48.6227 12.6535 48.5927 12.6535L48.5936 12.6526C47.8913 12.6526 47.2973 12.131 47.2029 11.4363L47.1897 11.227V6.29186C47.1896 4.49988 45.8454 3.00953 44.063 2.82593H44.0482L43.7195 2.80849H37.0806C36.3357 2.80831 35.7204 2.23123 35.6742 1.49275C35.628 0.757246 36.1608 0.110791 36.8887 0.0130789L37.098 0H43.7072Z" fill="url(#paint0_linear_41_28)"/>
<path d="M1.49449 36.6542C2.23418 36.7004 2.81309 37.3179 2.81111 38.0598V43.0263L2.8268 43.355V43.3698C3.01154 45.1521 4.50194 46.4964 6.29272 46.4966H11.901L12.1103 46.5096C12.8381 46.6073 13.3708 47.2542 13.3248 47.9885C13.2787 48.7271 12.6625 49.3049 11.9228 49.3051H6.2997L6.29796 49.3042L5.90036 49.292C2.59122 49.0847 -8.00507e-05 46.329 0.00087193 43.0123V38.0772L0.0139509 37.8679C0.107364 37.1732 0.702467 36.6516 1.40468 36.6516C1.43461 36.6516 1.46456 36.6511 1.49449 36.6542ZM48.6834 36.6542C49.4241 36.7004 50.002 37.3179 50 38.0598V43.0045L49.9878 43.4029C49.7816 46.7131 47.0258 49.3049 43.7081 49.3051H37.098L37.0989 49.3042L36.8896 49.2912C36.1617 49.1934 35.6288 48.5458 35.6751 47.8114C35.7213 47.0729 36.3367 46.4959 37.0762 46.4957H43.7204L44.0491 46.4791H44.0647C45.8469 46.2943 47.1905 44.8042 47.1906 43.0123V38.0772L47.2037 37.8679C47.2971 37.1732 47.8924 36.6516 48.5936 36.6516C48.6235 36.6516 48.6535 36.6511 48.6834 36.6542ZM24.9991 10.8713C25.7001 10.8713 26.295 11.3918 26.3907 12.0841L26.4038 12.2925V37.0221C26.406 37.7652 25.8269 38.3823 25.0872 38.4286C25.0573 38.4307 25.0271 38.4321 24.9982 38.4321C24.2962 38.432 23.7011 37.9102 23.6075 37.2157L23.5945 37.0065V12.2759C23.5947 11.5021 24.2253 10.8714 24.9991 10.8713ZM16.4454 17.4447C17.1464 17.4447 17.7413 17.9645 17.8371 18.6567L17.8502 18.8651V30.4479C17.8521 31.1907 17.2732 31.8081 16.5336 31.8543C16.5037 31.8563 16.4736 31.8578 16.4438 31.8578L16.4446 31.8586C15.7426 31.8585 15.1473 31.3362 15.0539 30.6405L15.0417 30.4312V18.8494C15.0419 18.0756 15.6717 17.445 16.4454 17.4447ZM33.5519 17.4447C34.2528 17.4447 34.8476 17.9646 34.9435 18.6567L34.9566 18.8651V30.4479C34.9586 31.1907 34.3796 31.8081 33.64 31.8543C33.6101 31.8563 33.58 31.8578 33.5502 31.8578L33.551 31.8586C32.849 31.8584 32.2537 31.3362 32.1603 30.6405L32.1481 30.4312V18.8494C32.1483 18.0756 32.7782 17.4451 33.5519 17.4447ZM6.05992 21.7468C6.76076 21.747 7.35579 22.2666 7.45152 22.9588L7.46373 23.1672V26.1466C7.46587 26.8895 6.88759 27.5064 6.14798 27.5539C6.11802 27.556 6.08814 27.5574 6.05818 27.5574C5.35633 27.5571 4.76183 27.0356 4.66832 26.3402L4.65524 26.1309V23.1506C4.65562 22.3769 5.28614 21.747 6.05992 21.7468ZM43.9392 21.7468C44.6402 21.7468 45.2351 22.2664 45.3308 22.9588L45.3439 23.1672V26.1466C45.3461 26.8896 44.7671 27.5066 44.0272 27.5539C43.9974 27.556 43.9682 27.5574 43.9383 27.5574C43.2363 27.5572 42.6411 27.0357 42.5476 26.3402L42.5354 26.1309V23.1506C42.5358 22.377 43.1655 21.7471 43.9392 21.7468ZM11.9149 0C12.6601 0 13.2759 0.578965 13.3231 1.31662C13.3691 2.05091 12.8363 2.69854 12.1085 2.79629L11.8992 2.80849H6.29186C4.49891 2.80856 3.00967 4.15305 2.82593 5.93523V5.95093L2.80849 6.27878V11.2445C2.81045 11.9872 2.23229 12.6046 1.49275 12.6508C1.46268 12.653 1.43212 12.6535 1.40206 12.6535L1.40294 12.6526C0.70091 12.6524 0.10648 12.1308 0.0130789 11.4363L0 11.227V6.29186C9.42188e-05 2.97534 2.59074 0.218575 5.89862 0.0122071L6.29708 0H11.9149ZM43.7072 0C47.0248 0.00020009 49.7807 2.59202 49.987 5.9021L49.9991 6.30057V11.2445C50.0011 11.9873 49.4222 12.6046 48.6825 12.6508C48.6526 12.6529 48.6227 12.6535 48.5927 12.6535L48.5936 12.6526C47.8913 12.6526 47.2973 12.131 47.2029 11.4363L47.1897 11.227V6.29186C47.1896 4.49988 45.8454 3.00953 44.063 2.82593H44.0482L43.7195 2.80849H37.0806C36.3357 2.80831 35.7204 2.23123 35.6742 1.49275C35.628 0.757246 36.1608 0.110791 36.8887 0.0130789L37.098 0H43.7072Z" fill="url(#paint1_linear_41_28)"/>
</g>
<defs>
<linearGradient id="paint0_linear_41_28" x1="25" y1="0" x2="25" y2="49.3051" gradientUnits="userSpaceOnUse">
<stop stop-color="#64B0E6"/>
<stop offset="1" stop-color="#205E9A"/>
</linearGradient>
<linearGradient id="paint1_linear_41_28" x1="20.25" y1="49.3052" x2="0.13234" y2="9.88371" gradientUnits="userSpaceOnUse">
<stop stop-color="#3385FF"/>
<stop offset="1" stop-color="#6FA9FF"/>
</linearGradient>
<clipPath id="clip0_41_28">
<rect width="50" height="50" fill="white"/>
</clipPath>
</defs>
</svg>
